<svg xmlns="http://www.w3.org/2000/svg" viewBox="0 0 512 512" role="img" aria-labelledby="title desc">
  <title id="title">DAY NIGHT DELIVERY SERVICES logo</title>
  <desc id="desc">Navy and gold logistics emblem with crescent, sun and delivery route.</desc>
  <defs>
    <linearGradient id="bg" x1="0" y1="0" x2="1" y2="1"><stop stop-color="#071A33"/><stop offset=".55" stop-color="#0057B8"/><stop offset="1" stop-color="#18A8E8"/></linearGradient>
    <linearGradient id="gold" x1="0" y1="0" x2="1" y2="1"><stop stop-color="#F8E08E"/><stop offset=".45" stop-color="#D4AF37"/><stop offset="1" stop-color="#A87512"/></linearGradient>
    <filter id="glow"><feGaussianBlur stdDeviation="6" result="b"/><feMerge><feMergeNode in="b"/><feMergeNode in="SourceGraphic"/></feMerge></filter>
  </defs>
  <rect width="512" height="512" rx="112" fill="url(#bg)"/>
  <path d="M80 360c86-92 187-134 352-150" fill="none" stroke="rgba(255,255,255,.28)" stroke-width="14" stroke-linecap="round" stroke-dasharray="28 22"/>
  <circle cx="160" cy="142" r="54" fill="url(#gold)" filter="url(#glow)"/>
  <path d="M311 80c-50 19-86 67-86 123 0 73 59 132 132 132 35 0 67-14 91-36-16 69-78 121-153 121-87 0-158-71-158-158 0-82 62-149 142-157 10-9 20-17 32-25Z" fill="rgba(255,255,255,.92)"/>
  <path d="M118 326h181l44 48h51c17 0 31 14 31 31v8H118v-87Z" fill="url(#gold)"/>
  <path d="M166 284h99c25 0 48 13 61 34l34 56H118l25-67c4-14 11-23 23-23Z" fill="#ffffff" opacity=".96"/>
  <circle cx="192" cy="414" r="29" fill="#071A33" stroke="url(#gold)" stroke-width="10"/>
  <circle cx="352" cy="414" r="29" fill="#071A33" stroke="url(#gold)" stroke-width="10"/>
</svg>
